<svg viewBox="0 0 243 243" fill="none" xmlns="http://www.w3.org/2000/svg"><g clip-path="url(#clip0)"><path d="M230.862 66.8242H85.0353C78.3446 66.8242 72.8975 72.2714 72.8975 78.9621V176.188C72.8975 182.878 78.3446 188.326 85.0353 188.326H176.522L215.836 227.64C216.614 228.413 217.651 228.826 218.704 228.826C219.227 228.826 219.753 228.729 220.251 228.518C221.762 227.894 222.75 226.412 222.75 224.776V188.325H230.862C237.557 188.325 243 182.878 243 176.187V78.9621C243 72.2714 237.552 66.8242 230.862 66.8242ZM234.904 176.188C234.904 178.415 233.089 180.226 230.866 180.226H218.704C216.468 180.226 214.654 182.036 214.654 184.276V215L181.066 181.412C180.309 180.651 179.276 180.226 178.203 180.226H85.0391C82.8117 180.226 81.0011 178.416 81.0011 176.188V78.9621C81.0011 76.7347 82.8113 74.924 85.0391 74.924H230.866C233.093 74.924 234.904 76.7342 234.904 78.9621V176.188V176.188Z" fill="white"/><path d="M24.25 135.675V131.675H20.25H12.1378C7.65632 131.675 4 128.018 4 123.537V26.3112C4 21.8294 7.65652 18.1729 12.1378 18.1729H157.965C162.446 18.1729 166.103 21.8294 166.103 26.3112V70.8739C166.103 70.8775 166.103 70.8804 166.102 70.8826C166.102 70.8863 166.102 70.8884 166.101 70.8892C166.101 70.8908 166.101 70.892 166.1 70.8931C166.099 70.8959 166.096 70.9022 166.089 70.9093C166.086 70.9122 166.083 70.9146 166.08 70.9164C166.077 70.919 166.074 70.9206 166.072 70.9214C166.07 70.9219 166.069 70.9223 166.068 70.9227C166.066 70.923 166.062 70.9238 166.053 70.9238H85.0395C80.6021 70.9238 77.0014 74.5256 77.0014 78.9618V131.625C77.0014 131.635 77.0006 131.639 77.0003 131.641C76.9999 131.642 76.9996 131.643 76.9991 131.645C76.9979 131.647 76.9945 131.654 76.9874 131.661C76.9802 131.668 76.9737 131.671 76.9705 131.673C76.9692 131.673 76.9679 131.674 76.9663 131.674C76.9649 131.674 76.9604 131.675 76.9515 131.675H66.4819H64.8252L63.6537 132.847L24.3355 172.161L24.3353 172.161C24.3299 172.166 24.325 172.169 24.3191 172.172C24.3119 172.175 24.3049 172.176 24.3004 172.176C24.2971 172.176 24.2943 172.176 24.2921 172.176L24.2758 172.169C24.2725 172.167 24.2707 172.166 24.2689 172.165C24.2665 172.163 24.2629 172.159 24.2593 172.154C24.2519 172.143 24.25 172.133 24.25 172.125V135.675Z" fill="currentColor" stroke="white" stroke-width="8"/><path d="M157.953 107.325C146.787 107.325 137.702 116.409 137.702 127.575C137.702 138.741 146.786 147.826 157.953 147.826C169.118 147.826 178.203 138.741 178.203 127.575C178.203 116.409 169.118 107.325 157.953 107.325ZM157.953 139.725C151.254 139.725 145.802 134.274 145.802 127.575C145.802 120.876 151.254 115.425 157.953 115.425C164.651 115.425 170.103 120.876 170.103 127.575C170.103 134.274 164.651 139.725 157.953 139.725Z" fill="white"/><path d="M206.553 107.325C195.387 107.325 186.303 116.409 186.303 127.575C186.303 138.741 195.387 147.826 206.553 147.826C217.719 147.826 226.804 138.741 226.804 127.575C226.804 116.409 217.719 107.325 206.553 107.325ZM206.553 139.725C199.854 139.725 194.403 134.274 194.403 127.575C194.403 120.876 199.854 115.425 206.553 115.425C213.252 115.425 218.703 120.876 218.703 127.575C218.703 134.274 213.252 139.725 206.553 139.725Z" fill="white"/><path d="M109.352 107.325C98.1857 107.325 89.1011 116.409 89.1011 127.575C89.1011 138.741 98.1852 147.826 109.352 147.826C120.517 147.826 129.602 138.741 129.602 127.575C129.602 116.409 120.517 107.325 109.352 107.325ZM109.352 139.725C102.653 139.725 97.2014 134.274 97.2014 127.575C97.2014 120.876 102.653 115.425 109.352 115.425C116.05 115.425 121.502 120.876 121.502 127.575C121.502 134.274 116.05 139.725 109.352 139.725Z" fill="white"/></g><defs><clipPath id="clip0"><rect width="243" height="243" fill="white"/></clipPath></defs></svg>
