<svg fill="currentColor" xmlns="http://www.w3.org/2000/svg" viewBox="0 0 512 512"><path d="M503.674 178.845L361.449 36.3651C343.668 18.5491 312.889 31.024 312.889 56.5199V121.124C186.784 124.61 78.2223 155.765 78.2223 282.986C78.2223 358.458 122.471 402.1 148.845 421.444C170.352 437.204 200.429 417.065 193.022 390.709C167.365 299.501 200.442 281.004 312.889 277.856V341.5C312.889 367.021 343.693 379.446 361.449 361.655L503.674 219.155C514.775 208.022 514.775 189.978 503.674 178.845ZM341.333 341.5V248.911C215.362 249.603 127.323 262.297 165.645 398.5C137.698 378.016 106.667 340.859 106.667 282.986C106.667 163.609 223.685 149.938 341.333 149.161V56.5003L483.556 199L341.333 341.5ZM374.307 387.978C376.277 386.569 378.127 385.019 380.293 383.005C387.12 376.657 398.222 381.498 398.222 390.831V441.25C398.222 464.86 379.12 484 355.556 484H42.6667C19.1022 484 0 464.86 0 441.25V127.75C0 104.14 19.1022 85.0003 42.6667 85.0003H195.685C201.563 85.0003 206.311 89.8204 206.221 95.7234C206.146 100.574 202.625 104.707 197.926 105.873C189.516 107.96 181.513 110.303 173.861 112.921C172.749 113.302 171.589 113.5 170.415 113.5H42.6667C34.8116 113.5 28.4445 119.88 28.4445 127.75V441.25C28.4445 449.12 34.8116 455.5 42.6667 455.5H355.556C363.411 455.5 369.778 449.12 369.778 441.25V396.717C369.778 393.239 371.481 389.999 374.307 387.978Z"/></svg>
