<svg viewBox="0 0 594 729" fill="none" preserveAspectRatio="xMinYMid" xmlns="http://www.w3.org/2000/svg"><path fill-rule="evenodd" clip-rule="evenodd" d="M335.72 717.926C381.748 695.513 411.148 649.049 411.663 597.904L411.745 589.714C411.88 576.331 397.867 567.485 385.822 573.35L297 616.6V707.973C297 721.278 310.95 729.987 322.924 724.157L335.72 717.926Z" stroke="currentColor" stroke-width="4" stroke-opacity=".4" stroke-linecap="round"/><path fill-rule="evenodd" clip-rule="evenodd" d="M258.292 515.25C212.264 537.662 182.864 584.127 182.349 635.271L182.267 643.461C182.132 656.845 196.145 665.691 208.19 659.826L297.012 616.575V496.395L258.292 515.25Z" stroke="currentColor" stroke-width="4" stroke-linecap="round" stroke-opacity=".5"/><path fill-rule="evenodd" clip-rule="evenodd" d="M425.847 433.68C471.875 411.267 501.275 364.803 501.79 313.658L501.872 305.468C502.007 292.085 487.994 283.238 475.949 289.103L297 376.24V496.42L425.847 433.68Z" stroke="currentColor" stroke-width="4" stroke-linecap="round" stroke-opacity=".6"/><path fill-rule="evenodd" clip-rule="evenodd" d="M168.165 318.775C122.137 341.188 92.737 387.652 92.2224 438.797L92.14 446.987C92.0054 460.371 106.019 469.217 118.063 463.352L297.012 376.215V256.035L168.165 318.775Z" stroke="currentColor" stroke-width="4" stroke-linecap="round" stroke-opacity=".7"/><path fill-rule="evenodd" clip-rule="evenodd" d="M515.974 149.42C562.002 127.008 591.402 80.5433 591.917 29.3989L591.999 21.2087C592.134 7.82517 578.12 -1.02103 566.076 4.84396L297 135.867V256.047L515.974 149.42Z" stroke="currentColor" stroke-width="4" stroke-linecap="round" stroke-opacity=".8"/><path fill-rule="evenodd" clip-rule="evenodd" d="M78.0262 122.301C31.998 144.714 2.59798 191.178 2.08337 242.323L2.00096 250.513C1.8663 263.896 15.8795 272.743 27.9242 266.878L297 135.855V44.4821C297 31.1768 283.05 22.4679 271.076 28.2983L78.0262 122.301Z" stroke="currentColor" stroke-width="4" stroke-linecap="round" stroke-opacity=".9"/></svg>