<svg viewBox="0 0 512 512" fill="none" preserveAspectRatio="xMinYMid" xmlns="http://www.w3.org/2000/svg">
<path d="M511.61 118.445L373.518 255.996L511.544 393.447C512.298 383.916 511.97 122.938 511.61 118.445Z" fill="currentColor"/>
<path d="M461.865 72.3921H50.137C36.744 72.3911 24.42 77.6671 15.418 86.2931C109.248 179.755 158.328 228.641 244.188 314.166C250.702 320.68 261.276 320.686 267.791 314.193C354.197 228.125 410.826 171.717 496.505 86.3731C487.445 77.6241 475.187 72.3921 461.865 72.3921Z" fill="currentColor"/>
<path d="M0.405027 118.458C0.0310261 123.066 -0.304975 383.99 0.465027 393.519L138.747 256.257L0.405027 118.458Z" fill="currentColor"/>
<path d="M349.863 279.558L291.373 337.817C271.885 357.304 240.2 357.388 220.606 337.795L162.397 279.814L15.543 425.585C24.545 434.226 36.701 439.608 50.137 439.608H461.865C475.311 439.608 487.479 434.218 496.482 425.565L349.863 279.558Z" fill="currentColor"/>
</svg>
