<svg viewBox="0 0 512 512" fill="none" preserveAspectRatio="xMinYMid" xmlns="http://www.w3.org/2000/svg">
<path d="M135.876 280.962L10.1051 225.93C-4.06893 219.733 -3.10993 199.309 11.5861 194.474L489.845 36.8109C502.357 32.6899 514.55 43.8599 511.536 56.6919L415.965 463.043C413.111 475.183 398.523 480.134 388.875 472.233L276.575 380.346L135.876 280.962Z" fill="#FFFFFF"/>
<path d="M396.465 124.56L135.876 280.962L167.761 428.861C170.621 442.13 186.261 447.978 197.125 439.842L276.576 380.345L211.204 326.846L404.699 135.153C410.372 129.532 403.314 120.449 396.465 124.56Z" fill="#EDEDED"/>
<path d="M178.275 441.894C184.133 444.542 191.312 444.196 197.125 439.842L276.576 380.345L243.89 353.596L211.204 326.847L178.275 441.894Z" fill="#CCCCCC"/>
</svg>
