<svg viewBox="0 0 308 39" fill="none" preserveAspectRatio="xMinYMid" xmlns="http://www.w3.org/2000/svg">
<path d="M9 3C9 1.34315 10.3431 0 12 0H14C15.6569 0 17 1.34315 17 3V5C17 6.65685 15.6569 8 14 8H12C10.3431 8 9 6.65685 9 5V3Z" fill="#FFAE0C"/>
<path d="M18 12C18 10.3431 19.3431 9 21 9H23C24.6569 9 26 10.3431 26 12V14C26 15.6569 24.6569 17 23 17H21C19.3431 17 18 15.6569 18 14V12Z" fill="#FFAE0C"/>
<path d="M9 34C9 32.3431 10.3431 31 12 31H14C15.6569 31 17 32.3431 17 34V36C17 37.6569 15.6569 39 14 39H12C10.3431 39 9 37.6569 9 36V34Z" fill="#FFAE0C"/>
<path d="M0 14V12C0 10.3431 1.34315 9 3 9H14C15.6569 9 17 10.3431 17 12V27C17 28.6569 15.6569 30 14 30H12C10.3431 30 9 28.6569 9 27V17H3C1.34315 17 0 15.6569 0 14Z" fill="#FFAE0C"/>
<path d="M38.51 31L47.112 6.996H50.682L59.284 31H55.816L53.402 24.098H44.358L41.944 31H38.51ZM45.242 21.31H52.518L49.866 13.728L48.914 10.294H48.846C48.506 11.7447 48.2 12.8893 47.928 13.728L45.242 21.31ZM62.7488 31V16.652H60.6068V13.966H62.7488V13.218C62.7488 12.13 62.9075 11.1893 63.2248 10.396C63.5421 9.58 63.9275 8.95667 64.3808 8.526C64.8568 8.07267 65.4008 7.72133 66.0128 7.472C66.6475 7.2 67.2141 7.03 67.7128 6.962C68.2115 6.87133 68.7215 6.826 69.2428 6.826C69.6508 6.826 70.0701 6.86 70.5008 6.928V9.784C70.3195 9.73867 70.0361 9.716 69.6508 9.716C67.2481 9.716 66.0468 10.8947 66.0468 13.252V13.966H70.0928V16.652H66.0468V31H62.7488ZM73.4543 31V13.796H76.6503V16.89L76.5483 18.148H76.6163C77.047 16.8333 77.7496 15.7453 78.7243 14.884C79.699 14.0227 80.821 13.592 82.0903 13.592C82.317 13.592 82.6116 13.6147 82.9743 13.66V16.924C82.793 16.8787 82.4756 16.856 82.0223 16.856C80.2996 16.856 78.985 17.5587 78.0783 18.964C77.1943 20.3467 76.7523 21.9787 76.7523 23.86V31H73.4543ZM86.1695 10.328V6.996H89.5695V10.328H86.1695ZM86.2375 31V13.796H89.5355V31H86.2375ZM93.4827 22.398C93.4827 19.8367 94.344 17.6947 96.0667 15.972C97.812 14.2493 100.022 13.388 102.697 13.388C105.417 13.388 107.57 14.2267 109.157 15.904L107.593 18.216C106.278 16.9013 104.691 16.244 102.833 16.244C101.11 16.244 99.682 16.8333 98.5487 18.012C97.4154 19.168 96.8487 20.6187 96.8487 22.364C96.8487 24.132 97.4154 25.6053 98.5487 26.784C99.7047 27.9627 101.167 28.552 102.935 28.552C103.887 28.552 104.839 28.348 105.791 27.94C106.765 27.5093 107.581 26.9427 108.239 26.24L109.565 28.654C108.771 29.4927 107.763 30.1613 106.539 30.66C105.315 31.1587 104.034 31.408 102.697 31.408C99.9994 31.408 97.7894 30.558 96.0667 28.858C94.344 27.158 93.4827 25.0047 93.4827 22.398ZM111.704 26.308C111.704 25.0387 112.055 23.9733 112.758 23.112C113.461 22.2507 114.39 21.6387 115.546 21.276C116.725 20.8907 117.813 20.63 118.81 20.494C119.807 20.358 120.861 20.29 121.972 20.29H122.856V19.95C122.856 17.434 121.598 16.176 119.082 16.176C117.427 16.176 115.818 16.7313 114.254 17.842L112.928 15.428C113.631 14.8387 114.583 14.3513 115.784 13.966C116.985 13.5807 118.175 13.388 119.354 13.388C121.53 13.388 123.207 13.966 124.386 15.122C125.565 16.278 126.154 17.944 126.154 20.12V31H123.06V29.266L123.162 27.906H123.094C122.573 28.926 121.802 29.7647 120.782 30.422C119.785 31.0793 118.674 31.408 117.45 31.408C115.886 31.408 114.537 30.9433 113.404 30.014C112.271 29.0847 111.704 27.8493 111.704 26.308ZM115.002 26.036C115.002 26.784 115.285 27.43 115.852 27.974C116.419 28.518 117.212 28.79 118.232 28.79C119.592 28.79 120.703 28.2233 121.564 27.09C122.425 25.9567 122.856 24.6987 122.856 23.316V22.67H122.006C117.337 22.67 115.002 23.792 115.002 26.036ZM129.979 18.862C129.979 15.3487 131.124 12.4247 133.413 10.09C135.725 7.75533 138.649 6.588 142.185 6.588C145.835 6.588 148.759 7.642 150.957 9.75L149.257 12.266C148.373 11.4727 147.297 10.838 146.027 10.362C144.781 9.886 143.545 9.648 142.321 9.648C139.601 9.648 137.437 10.5207 135.827 12.266C134.241 14.0113 133.447 16.1987 133.447 18.828C133.447 21.48 134.263 23.724 135.895 25.56C137.527 27.396 139.692 28.314 142.389 28.314C143.727 28.314 145.041 28.042 146.333 27.498C147.648 26.9313 148.793 26.1607 149.767 25.186L151.569 27.6C149.031 30.1387 145.937 31.408 142.287 31.408C138.638 31.408 135.669 30.218 133.379 27.838C131.113 25.4353 129.979 22.4433 129.979 18.862ZM155.2 31V6.996H158.498V15.904L158.362 17.332H158.43C158.906 16.3347 159.711 15.428 160.844 14.612C161.978 13.796 163.326 13.388 164.89 13.388C168.812 13.388 170.772 15.5867 170.772 19.984V31H167.474V20.732C167.474 19.3493 167.248 18.284 166.794 17.536C166.364 16.788 165.514 16.414 164.244 16.414C162.59 16.414 161.218 17.026 160.13 18.25C159.042 19.4513 158.498 20.9813 158.498 22.84V31H155.2ZM175.687 31V13.796H178.883V16.89L178.781 18.148H178.849C179.279 16.8333 179.982 15.7453 180.957 14.884C181.931 14.0227 183.053 13.592 184.323 13.592C184.549 13.592 184.844 13.6147 185.207 13.66V16.924C185.025 16.8787 184.708 16.856 184.255 16.856C182.532 16.856 181.217 17.5587 180.311 18.964C179.427 20.3467 178.985 21.9787 178.985 23.86V31H175.687ZM188.402 10.328V6.996H191.802V10.328H188.402ZM188.47 31V13.796H191.768V31H188.47ZM195.375 28.892L196.939 26.648C198.322 27.9853 200.01 28.654 202.005 28.654C202.889 28.654 203.592 28.4613 204.113 28.076C204.657 27.668 204.929 27.1127 204.929 26.41C204.929 25.8207 204.623 25.3107 204.011 24.88C203.399 24.4493 202.662 24.0753 201.801 23.758C200.94 23.4407 200.078 23.0893 199.217 22.704C198.356 22.3187 197.619 21.7633 197.007 21.038C196.395 20.29 196.089 19.3947 196.089 18.352C196.089 16.788 196.678 15.5753 197.857 14.714C199.036 13.83 200.509 13.388 202.277 13.388C204.589 13.388 206.448 14.0227 207.853 15.292L206.527 17.672C206.028 17.196 205.371 16.822 204.555 16.55C203.762 16.278 202.968 16.142 202.175 16.142C201.291 16.142 200.577 16.3233 200.033 16.686C199.512 17.0487 199.251 17.5813 199.251 18.284C199.251 18.896 199.557 19.4173 200.169 19.848C200.781 20.2787 201.518 20.6527 202.379 20.97C203.24 21.2647 204.102 21.6047 204.963 21.99C205.847 22.3753 206.595 22.942 207.207 23.69C207.819 24.4153 208.125 25.2993 208.125 26.342C208.125 27.8153 207.547 29.028 206.391 29.98C205.235 30.932 203.75 31.408 201.937 31.408C199.217 31.408 197.03 30.5693 195.375 28.892ZM212.758 24.71V16.652H210.514V13.966H212.826V9.07H216.056V13.966H220.204V16.652H216.056V24.336C216.056 24.9933 216.147 25.5713 216.328 26.07C216.509 26.546 216.725 26.92 216.974 27.192C217.246 27.464 217.552 27.6793 217.892 27.838C218.255 27.9967 218.572 28.0987 218.844 28.144C219.139 28.1893 219.433 28.212 219.728 28.212C220.023 28.212 220.283 28.1893 220.51 28.144V31.068C219.966 31.136 219.581 31.17 219.354 31.17C218.833 31.17 218.311 31.1247 217.79 31.034C217.291 30.966 216.725 30.8073 216.09 30.558C215.455 30.286 214.9 29.9347 214.424 29.504C213.971 29.0507 213.574 28.416 213.234 27.6C212.917 26.7613 212.758 25.798 212.758 24.71ZM223.83 10.328V6.996H227.23V10.328H223.83ZM223.898 31V13.796H227.196V31H223.898ZM230.837 26.308C230.837 25.0387 231.188 23.9733 231.891 23.112C232.594 22.2507 233.523 21.6387 234.679 21.276C235.858 20.8907 236.946 20.63 237.943 20.494C238.94 20.358 239.994 20.29 241.105 20.29H241.989V19.95C241.989 17.434 240.731 16.176 238.215 16.176C236.56 16.176 234.951 16.7313 233.387 17.842L232.061 15.428C232.764 14.8387 233.716 14.3513 234.917 13.966C236.118 13.5807 237.308 13.388 238.487 13.388C240.663 13.388 242.34 13.966 243.519 15.122C244.698 16.278 245.287 17.944 245.287 20.12V31H242.193V29.266L242.295 27.906H242.227C241.706 28.926 240.935 29.7647 239.915 30.422C238.918 31.0793 237.807 31.408 236.583 31.408C235.019 31.408 233.67 30.9433 232.537 30.014C231.404 29.0847 230.837 27.8493 230.837 26.308ZM234.135 26.036C234.135 26.784 234.418 27.43 234.985 27.974C235.552 28.518 236.345 28.79 237.365 28.79C238.725 28.79 239.836 28.2233 240.697 27.09C241.558 25.9567 241.989 24.6987 241.989 23.316V22.67H241.139C236.47 22.67 234.135 23.792 234.135 26.036ZM250.195 31V13.796H253.391V16.142L253.289 17.434H253.357C253.787 16.4593 254.558 15.5413 255.669 14.68C256.802 13.8187 258.207 13.388 259.885 13.388C263.806 13.388 265.767 15.5867 265.767 19.984V31H262.469V20.732C262.469 19.3493 262.242 18.284 261.789 17.536C261.358 16.788 260.508 16.414 259.239 16.414C257.584 16.414 256.213 17.026 255.125 18.25C254.037 19.4513 253.493 20.9473 253.493 22.738V31H250.195ZM270.613 10.328V6.996H274.013V10.328H270.613ZM270.681 31V13.796H273.979V31H270.681ZM279.762 24.71V16.652H277.518V13.966H279.83V9.07H283.06V13.966H287.208V16.652H283.06V24.336C283.06 24.9933 283.151 25.5713 283.332 26.07C283.513 26.546 283.729 26.92 283.978 27.192C284.25 27.464 284.556 27.6793 284.896 27.838C285.259 27.9967 285.576 28.0987 285.848 28.144C286.143 28.1893 286.437 28.212 286.732 28.212C287.027 28.212 287.287 28.1893 287.514 28.144V31.068C286.97 31.136 286.585 31.17 286.358 31.17C285.837 31.17 285.315 31.1247 284.794 31.034C284.295 30.966 283.729 30.8073 283.094 30.558C282.459 30.286 281.904 29.9347 281.428 29.504C280.975 29.0507 280.578 28.416 280.238 27.6C279.921 26.7613 279.762 25.798 279.762 24.71ZM290.052 34.57C290.686 35.0687 291.344 35.318 292.024 35.318C293.406 35.318 294.449 34.468 295.152 32.768L296.002 30.796L288.794 13.796H292.5L296.818 25.05L297.464 27.124H297.532C297.713 26.3533 297.906 25.6733 298.11 25.084L302.292 13.796H305.862L297.77 34.094C297.271 35.4087 296.523 36.406 295.526 37.086C294.551 37.7887 293.44 38.14 292.194 38.14C291.627 38.14 291.072 38.0493 290.528 37.868C289.984 37.6867 289.576 37.5053 289.304 37.324L288.896 37.086L290.052 34.57Z" fill="#212336"/>
</svg>
