<svg viewBox="0 0 325 39" fill="none" preserveAspectRatio="xMinYMid" xmlns="http://www.w3.org/2000/svg">
<path d="M9 3C9 1.34315 10.3431 0 12 0H14C15.6569 0 17 1.34315 17 3V5C17 6.65685 15.6569 8 14 8H12C10.3431 8 9 6.65685 9 5V3Z" fill="#FFAE0C"/>
<path d="M18 12C18 10.3431 19.3431 9 21 9H23C24.6569 9 26 10.3431 26 12V14C26 15.6569 24.6569 17 23 17H21C19.3431 17 18 15.6569 18 14V12Z" fill="#FFAE0C"/>
<path d="M9 34C9 32.3431 10.3431 31 12 31H14C15.6569 31 17 32.3431 17 34V36C17 37.6569 15.6569 39 14 39H12C10.3431 39 9 37.6569 9 36V34Z" fill="#FFAE0C"/>
<path d="M0 14V12C0 10.3431 1.34315 9 3 9H14C15.6569 9 17 10.3431 17 12V27C17 28.6569 15.6569 30 14 30H12C10.3431 30 9 28.6569 9 27V17H3C1.34315 17 0 15.6569 0 14Z" fill="#FFAE0C"/>
<path d="M39.7 18.862C39.7 15.3487 40.8447 12.4247 43.134 10.09C45.446 7.75533 48.37 6.588 51.906 6.588C55.5553 6.588 58.4793 7.642 60.678 9.75L58.978 12.266C58.094 11.4727 57.0173 10.838 55.748 10.362C54.5013 9.886 53.266 9.648 52.042 9.648C49.322 9.648 47.1573 10.5207 45.548 12.266C43.9613 14.0113 43.168 16.1987 43.168 18.828C43.168 21.48 43.984 23.724 45.616 25.56C47.248 27.396 49.4127 28.314 52.11 28.314C53.4473 28.314 54.762 28.042 56.054 27.498C57.3687 26.9313 58.5133 26.1607 59.488 25.186L61.29 27.6C58.7513 30.1387 55.6573 31.408 52.008 31.408C48.3587 31.408 45.3893 30.218 43.1 27.838C40.8333 25.4353 39.7 22.4433 39.7 18.862ZM64.9211 31V6.996H68.2191V15.904L68.0831 17.332H68.1511C68.6271 16.3347 69.4318 15.428 70.5651 14.612C71.6984 13.796 73.0471 13.388 74.6111 13.388C78.5324 13.388 80.4931 15.5867 80.4931 19.984V31H77.1951V20.732C77.1951 19.3493 76.9684 18.284 76.5151 17.536C76.0844 16.788 75.2344 16.414 73.9651 16.414C72.3104 16.414 70.9391 17.026 69.8511 18.25C68.7631 19.4513 68.2191 20.9813 68.2191 22.84V31H64.9211ZM85.4074 31V13.796H88.6034V16.89L88.5014 18.148H88.5694C89.0001 16.8333 89.7028 15.7453 90.6774 14.884C91.6521 14.0227 92.7741 13.592 94.0434 13.592C94.2701 13.592 94.5648 13.6147 94.9274 13.66V16.924C94.7461 16.8787 94.4288 16.856 93.9754 16.856C92.2528 16.856 90.9381 17.5587 90.0314 18.964C89.1474 20.3467 88.7054 21.9787 88.7054 23.86V31H85.4074ZM98.1226 10.328V6.996H101.523V10.328H98.1226ZM98.1906 31V13.796H101.489V31H98.1906ZM105.096 28.892L106.66 26.648C108.042 27.9853 109.731 28.654 111.726 28.654C112.61 28.654 113.312 28.4613 113.834 28.076C114.378 27.668 114.65 27.1127 114.65 26.41C114.65 25.8207 114.344 25.3107 113.732 24.88C113.12 24.4493 112.383 24.0753 111.522 23.758C110.66 23.4407 109.799 23.0893 108.938 22.704C108.076 22.3187 107.34 21.7633 106.728 21.038C106.116 20.29 105.81 19.3947 105.81 18.352C105.81 16.788 106.399 15.5753 107.578 14.714C108.756 13.83 110.23 13.388 111.998 13.388C114.31 13.388 116.168 14.0227 117.574 15.292L116.248 17.672C115.749 17.196 115.092 16.822 114.276 16.55C113.482 16.278 112.689 16.142 111.896 16.142C111.012 16.142 110.298 16.3233 109.754 16.686C109.232 17.0487 108.972 17.5813 108.972 18.284C108.972 18.896 109.278 19.4173 109.89 19.848C110.502 20.2787 111.238 20.6527 112.1 20.97C112.961 21.2647 113.822 21.6047 114.684 21.99C115.568 22.3753 116.316 22.942 116.928 23.69C117.54 24.4153 117.846 25.2993 117.846 26.342C117.846 27.8153 117.268 29.028 116.112 29.98C114.956 30.932 113.471 31.408 111.658 31.408C108.938 31.408 106.75 30.5693 105.096 28.892ZM122.479 24.71V16.652H120.235V13.966H122.547V9.07H125.777V13.966H129.925V16.652H125.777V24.336C125.777 24.9933 125.868 25.5713 126.049 26.07C126.23 26.546 126.446 26.92 126.695 27.192C126.967 27.464 127.273 27.6793 127.613 27.838C127.976 27.9967 128.293 28.0987 128.565 28.144C128.86 28.1893 129.154 28.212 129.449 28.212C129.744 28.212 130.004 28.1893 130.231 28.144V31.068C129.687 31.136 129.302 31.17 129.075 31.17C128.554 31.17 128.032 31.1247 127.511 31.034C127.012 30.966 126.446 30.8073 125.811 30.558C125.176 30.286 124.621 29.9347 124.145 29.504C123.692 29.0507 123.295 28.416 122.955 27.6C122.638 26.7613 122.479 25.798 122.479 24.71ZM133.55 10.328V6.996H136.95V10.328H133.55ZM133.618 31V13.796H136.916V31H133.618ZM140.558 26.308C140.558 25.0387 140.909 23.9733 141.612 23.112C142.314 22.2507 143.244 21.6387 144.4 21.276C145.578 20.8907 146.666 20.63 147.664 20.494C148.661 20.358 149.715 20.29 150.826 20.29H151.71V19.95C151.71 17.434 150.452 16.176 147.936 16.176C146.281 16.176 144.672 16.7313 143.108 17.842L141.782 15.428C142.484 14.8387 143.436 14.3513 144.638 13.966C145.839 13.5807 147.029 13.388 148.208 13.388C150.384 13.388 152.061 13.966 153.24 15.122C154.418 16.278 155.008 17.944 155.008 20.12V31H151.914V29.266L152.016 27.906H151.948C151.426 28.926 150.656 29.7647 149.636 30.422C148.638 31.0793 147.528 31.408 146.304 31.408C144.74 31.408 143.391 30.9433 142.258 30.014C141.124 29.0847 140.558 27.8493 140.558 26.308ZM143.856 26.036C143.856 26.784 144.139 27.43 144.706 27.974C145.272 28.518 146.066 28.79 147.086 28.79C148.446 28.79 149.556 28.2233 150.418 27.09C151.279 25.9567 151.71 24.6987 151.71 23.316V22.67H150.86C146.19 22.67 143.856 23.792 143.856 26.036ZM159.915 31V13.796H163.111V16.142L163.009 17.434H163.077C163.508 16.4593 164.279 15.5413 165.389 14.68C166.523 13.8187 167.928 13.388 169.605 13.388C173.527 13.388 175.487 15.5867 175.487 19.984V31H172.189V20.732C172.189 19.3493 171.963 18.284 171.509 17.536C171.079 16.788 170.229 16.414 168.959 16.414C167.305 16.414 165.933 17.026 164.845 18.25C163.757 19.4513 163.213 20.9473 163.213 22.738V31H159.915ZM180.334 10.328V6.996H183.734V10.328H180.334ZM180.402 31V13.796H183.7V31H180.402ZM187.307 28.892L188.871 26.648C190.253 27.9853 191.942 28.654 193.937 28.654C194.821 28.654 195.523 28.4613 196.045 28.076C196.589 27.668 196.861 27.1127 196.861 26.41C196.861 25.8207 196.555 25.3107 195.943 24.88C195.331 24.4493 194.594 24.0753 193.733 23.758C192.871 23.4407 192.01 23.0893 191.149 22.704C190.287 22.3187 189.551 21.7633 188.939 21.038C188.327 20.29 188.021 19.3947 188.021 18.352C188.021 16.788 188.61 15.5753 189.789 14.714C190.967 13.83 192.441 13.388 194.209 13.388C196.521 13.388 198.379 14.0227 199.785 15.292L198.459 17.672C197.96 17.196 197.303 16.822 196.487 16.55C195.693 16.278 194.9 16.142 194.107 16.142C193.223 16.142 192.509 16.3233 191.965 16.686C191.443 17.0487 191.183 17.5813 191.183 18.284C191.183 18.896 191.489 19.4173 192.101 19.848C192.713 20.2787 193.449 20.6527 194.311 20.97C195.172 21.2647 196.033 21.6047 196.895 21.99C197.779 22.3753 198.527 22.942 199.139 23.69C199.751 24.4153 200.057 25.2993 200.057 26.342C200.057 27.8153 199.479 29.028 198.323 29.98C197.167 30.932 195.682 31.408 193.869 31.408C191.149 31.408 188.961 30.5693 187.307 28.892ZM203.976 31V13.796H207.172V16.142L207.07 17.434H207.138C207.568 16.3687 208.35 15.428 209.484 14.612C210.617 13.796 211.83 13.388 213.122 13.388C215.955 13.388 217.666 14.6913 218.256 17.298H218.324C218.822 16.2327 219.627 15.3147 220.738 14.544C221.871 13.7733 223.106 13.388 224.444 13.388C226.393 13.388 227.821 13.932 228.728 15.02C229.657 16.108 230.122 17.7627 230.122 19.984V31H226.824V20.698C226.824 19.3153 226.608 18.25 226.178 17.502C225.77 16.754 224.976 16.38 223.798 16.38C222.279 16.38 221.044 17.0487 220.092 18.386C219.162 19.7007 218.698 21.2307 218.698 22.976V31H215.4V20.698C215.4 19.338 215.196 18.284 214.788 17.536C214.402 16.7653 213.62 16.38 212.442 16.38C210.9 16.38 209.654 17.0487 208.702 18.386C207.75 19.7233 207.274 21.2533 207.274 22.976V31H203.976ZM233.932 22.398C233.932 19.7007 234.748 17.5247 236.38 15.87C238.012 14.2153 240.075 13.388 242.568 13.388C244.903 13.388 246.727 14.1587 248.042 15.7C249.357 17.2187 250.014 19.134 250.014 21.446C250.014 21.7407 249.969 22.2053 249.878 22.84H237.366C237.457 24.6307 238.057 26.036 239.168 27.056C240.301 28.0533 241.673 28.552 243.282 28.552C245.163 28.552 246.852 27.8833 248.348 26.546L249.742 28.96C248.926 29.708 247.906 30.3087 246.682 30.762C245.481 31.1927 244.279 31.408 243.078 31.408C240.403 31.408 238.205 30.558 236.482 28.858C234.782 27.1353 233.932 24.982 233.932 22.398ZM237.468 20.46H246.682C246.637 19.032 246.217 17.9213 245.424 17.128C244.653 16.3347 243.679 15.938 242.5 15.938C241.208 15.938 240.097 16.346 239.168 17.162C238.261 17.9553 237.695 19.0547 237.468 20.46ZM251.94 31L260.542 6.996H264.112L272.714 31H269.246L266.832 24.098H257.788L255.374 31H251.94ZM258.672 21.31H265.948L263.296 13.728L262.344 10.294H262.276C261.936 11.7447 261.63 12.8893 261.358 13.728L258.672 21.31ZM274.274 22.398C274.274 19.8367 275.135 17.6947 276.858 15.972C278.603 14.2493 280.813 13.388 283.488 13.388C286.208 13.388 288.361 14.2267 289.948 15.904L288.384 18.216C287.069 16.9013 285.482 16.244 283.624 16.244C281.901 16.244 280.473 16.8333 279.34 18.012C278.206 19.168 277.64 20.6187 277.64 22.364C277.64 24.132 278.206 25.6053 279.34 26.784C280.496 27.9627 281.958 28.552 283.726 28.552C284.678 28.552 285.63 28.348 286.582 27.94C287.556 27.5093 288.372 26.9427 289.03 26.24L290.356 28.654C289.562 29.4927 288.554 30.1613 287.33 30.66C286.106 31.1587 284.825 31.408 283.488 31.408C280.79 31.408 278.58 30.558 276.858 28.858C275.135 27.158 274.274 25.0047 274.274 22.398ZM294.637 24.71V16.652H292.393V13.966H294.705V9.07H297.935V13.966H302.083V16.652H297.935V24.336C297.935 24.9933 298.026 25.5713 298.207 26.07C298.388 26.546 298.604 26.92 298.853 27.192C299.125 27.464 299.431 27.6793 299.771 27.838C300.134 27.9967 300.451 28.0987 300.723 28.144C301.018 28.1893 301.312 28.212 301.607 28.212C301.902 28.212 302.162 28.1893 302.389 28.144V31.068C301.845 31.136 301.46 31.17 301.233 31.17C300.712 31.17 300.19 31.1247 299.669 31.034C299.17 30.966 298.604 30.8073 297.969 30.558C297.334 30.286 296.779 29.9347 296.303 29.504C295.85 29.0507 295.453 28.416 295.113 27.6C294.796 26.7613 294.637 25.798 294.637 24.71ZM305.709 10.328V6.996H309.109V10.328H305.709ZM305.777 31V13.796H309.075V31H305.777ZM314.96 31V16.652H312.818V13.966H314.96V13.218C314.96 12.13 315.118 11.1893 315.436 10.396C315.753 9.58 316.138 8.95667 316.592 8.526C317.068 8.07267 317.612 7.72133 318.224 7.472C318.858 7.2 319.425 7.03 319.924 6.962C320.422 6.87133 320.932 6.826 321.454 6.826C321.862 6.826 322.281 6.86 322.712 6.928V9.784C322.53 9.73867 322.247 9.716 321.862 9.716C319.459 9.716 318.258 10.8947 318.258 13.252V13.966H322.304V16.652H318.258V31H314.96Z" fill="#212336"/>
</svg>
