<svg viewBox="0 0 197 39" fill="none" xmlns="http://www.w3.org/2000/svg">
<path d="M9 3C9 1.34315 10.3431 0 12 0H14C15.6569 0 17 1.34315 17 3V5C17 6.65685 15.6569 8 14 8H12C10.3431 8 9 6.65685 9 5V3Z" fill="#FFAE0C"/>
<path d="M18 12C18 10.3431 19.3431 9 21 9H23C24.6569 9 26 10.3431 26 12V14C26 15.6569 24.6569 17 23 17H21C19.3431 17 18 15.6569 18 14V12Z" fill="#FFAE0C"/>
<path d="M9 34C9 32.3431 10.3431 31 12 31H14C15.6569 31 17 32.3431 17 34V36C17 37.6569 15.6569 39 14 39H12C10.3431 39 9 37.6569 9 36V34Z" fill="#FFAE0C"/>
<path d="M0 14V12C0 10.3431 1.34315 9 3 9H14C15.6569 9 17 10.3431 17 12V27C17 28.6569 15.6569 30 14 30H12C10.3431 30 9 28.6569 9 27V17H3C1.34315 17 0 15.6569 0 14Z" fill="#FFAE0C"/>
<path d="M40.89 22.5V6.996H44.256V22.466C44.256 24.302 44.8 25.7413 45.888 26.784C46.9987 27.804 48.4833 28.314 50.342 28.314C52.2007 28.314 53.674 27.804 54.762 26.784C55.85 25.7413 56.394 24.2907 56.394 22.432V6.996H59.76V22.5C59.76 25.1747 58.8987 27.328 57.176 28.96C55.4533 30.592 53.1867 31.408 50.376 31.408C47.5427 31.408 45.2533 30.592 43.508 28.96C41.7627 27.328 40.89 25.1747 40.89 22.5ZM65.0539 31V6.996H68.3519V20.12H70.7999L75.4579 13.796H79.1979L73.4859 21.378V21.446L79.8439 31H76.0019L70.8679 22.942H68.3519V31H65.0539ZM82.8176 31V13.796H86.0136V16.89L85.9116 18.148H85.9796C86.4102 16.8333 87.1129 15.7453 88.0876 14.884C89.0622 14.0227 90.1842 13.592 91.4536 13.592C91.6802 13.592 91.9749 13.6147 92.3376 13.66V16.924C92.1562 16.8787 91.8389 16.856 91.3856 16.856C89.6629 16.856 88.3482 17.5587 87.4416 18.964C86.5576 20.3467 86.1156 21.9787 86.1156 23.86V31H82.8176ZM95.5328 10.328V6.996H98.9328V10.328H95.5328ZM95.6008 31V13.796H98.8988V31H95.6008ZM102.506 28.892L104.07 26.648C105.453 27.9853 107.141 28.654 109.136 28.654C110.02 28.654 110.723 28.4613 111.244 28.076C111.788 27.668 112.06 27.1127 112.06 26.41C112.06 25.8207 111.754 25.3107 111.142 24.88C110.53 24.4493 109.793 24.0753 108.932 23.758C108.071 23.4407 107.209 23.0893 106.348 22.704C105.487 22.3187 104.75 21.7633 104.138 21.038C103.526 20.29 103.22 19.3947 103.22 18.352C103.22 16.788 103.809 15.5753 104.988 14.714C106.167 13.83 107.64 13.388 109.408 13.388C111.72 13.388 113.579 14.0227 114.984 15.292L113.658 17.672C113.159 17.196 112.502 16.822 111.686 16.55C110.893 16.278 110.099 16.142 109.306 16.142C108.422 16.142 107.708 16.3233 107.164 16.686C106.643 17.0487 106.382 17.5813 106.382 18.284C106.382 18.896 106.688 19.4173 107.3 19.848C107.912 20.2787 108.649 20.6527 109.51 20.97C110.371 21.2647 111.233 21.6047 112.094 21.99C112.978 22.3753 113.726 22.942 114.338 23.69C114.95 24.4153 115.256 25.2993 115.256 26.342C115.256 27.8153 114.678 29.028 113.522 29.98C112.366 30.932 110.881 31.408 109.068 31.408C106.348 31.408 104.161 30.5693 102.506 28.892ZM119.889 24.71V16.652H117.645V13.966H119.957V9.07H123.187V13.966H127.335V16.652H123.187V24.336C123.187 24.9933 123.278 25.5713 123.459 26.07C123.64 26.546 123.856 26.92 124.105 27.192C124.377 27.464 124.683 27.6793 125.023 27.838C125.386 27.9967 125.703 28.0987 125.975 28.144C126.27 28.1893 126.564 28.212 126.859 28.212C127.154 28.212 127.414 28.1893 127.641 28.144V31.068C127.097 31.136 126.712 31.17 126.485 31.17C125.964 31.17 125.442 31.1247 124.921 31.034C124.422 30.966 123.856 30.8073 123.221 30.558C122.586 30.286 122.031 29.9347 121.555 29.504C121.102 29.0507 120.705 28.416 120.365 27.6C120.048 26.7613 119.889 25.798 119.889 24.71ZM129.707 22.364C129.707 19.8027 130.603 17.672 132.393 15.972C134.184 14.2493 136.371 13.388 138.955 13.388C141.562 13.388 143.761 14.238 145.551 15.938C147.342 17.638 148.237 19.78 148.237 22.364C148.237 24.948 147.342 27.1013 145.551 28.824C143.761 30.5467 141.573 31.408 138.989 31.408C136.405 31.408 134.207 30.5467 132.393 28.824C130.603 27.1013 129.707 24.948 129.707 22.364ZM133.073 22.364C133.073 24.1547 133.64 25.6393 134.773 26.818C135.929 27.974 137.335 28.552 138.989 28.552C140.621 28.552 142.015 27.9627 143.171 26.784C144.327 25.6053 144.905 24.132 144.905 22.364C144.905 20.596 144.327 19.134 143.171 17.978C142.015 16.822 140.621 16.244 138.989 16.244C137.335 16.244 135.929 16.822 134.773 17.978C133.64 19.134 133.073 20.596 133.073 22.364ZM152.212 31V6.996H155.51V15.904L155.374 17.332H155.442C155.918 16.3347 156.723 15.428 157.856 14.612C158.989 13.796 160.338 13.388 161.902 13.388C165.823 13.388 167.784 15.5867 167.784 19.984V31H164.486V20.732C164.486 19.3493 164.259 18.284 163.806 17.536C163.375 16.788 162.525 16.414 161.256 16.414C159.601 16.414 158.23 17.026 157.142 18.25C156.054 19.4513 155.51 20.9813 155.51 22.84V31H152.212ZM171.27 26.308C171.27 25.0387 171.622 23.9733 172.324 23.112C173.027 22.2507 173.956 21.6387 175.112 21.276C176.291 20.8907 177.379 20.63 178.376 20.494C179.374 20.358 180.428 20.29 181.538 20.29H182.422V19.95C182.422 17.434 181.164 16.176 178.648 16.176C176.994 16.176 175.384 16.7313 173.82 17.842L172.494 15.428C173.197 14.8387 174.149 14.3513 175.35 13.966C176.552 13.5807 177.742 13.388 178.92 13.388C181.096 13.388 182.774 13.966 183.952 15.122C185.131 16.278 185.72 17.944 185.72 20.12V31H182.626V29.266L182.728 27.906H182.66C182.139 28.926 181.368 29.7647 180.348 30.422C179.351 31.0793 178.24 31.408 177.016 31.408C175.452 31.408 174.104 30.9433 172.97 30.014C171.837 29.0847 171.27 27.8493 171.27 26.308ZM174.568 26.036C174.568 26.784 174.852 27.43 175.418 27.974C175.985 28.518 176.778 28.79 177.798 28.79C179.158 28.79 180.269 28.2233 181.13 27.09C181.992 25.9567 182.422 24.6987 182.422 23.316V22.67H181.572C176.903 22.67 174.568 23.792 174.568 26.036ZM190.56 10.328V6.996H193.96V10.328H190.56ZM190.628 31V13.796H193.926V31H190.628Z" fill="#212336"/>
</svg>
