<svg viewBox="0 0 22 32" fill="none" xmlns="http://www.w3.org/2000/svg">
<path d="M7.38464 2.46154C7.38464 1.10207 8.48671 0 9.84618 0H11.4872C12.8467 0 13.9487 1.10207 13.9487 2.46154V4.10256C13.9487 5.46203 12.8467 6.5641 11.4872 6.5641H9.84618C8.48671 6.5641 7.38464 5.46203 7.38464 4.10256V2.46154Z" fill="white"/>
<path d="M14.7692 9.84615C14.7692 8.48668 15.8713 7.38461 17.2308 7.38461H18.8718C20.2313 7.38461 21.3333 8.48668 21.3333 9.84615V11.4872C21.3333 12.8466 20.2313 13.9487 18.8718 13.9487H17.2308C15.8713 13.9487 14.7692 12.8466 14.7692 11.4872V9.84615Z" fill="white"/>
<path d="M7.38464 27.8975C7.38464 26.538 8.48671 25.4359 9.84618 25.4359H11.4872C12.8467 25.4359 13.9487 26.538 13.9487 27.8975V29.5385C13.9487 30.8979 12.8467 32 11.4872 32H9.84618C8.48671 32 7.38464 30.8979 7.38464 29.5385V27.8975Z" fill="white"/>
<path d="M0 11.4872V9.84615C0 8.48668 1.10207 7.38461 2.46154 7.38461H11.4872C12.8466 7.38461 13.9487 8.48668 13.9487 9.84615V22.1538C13.9487 23.5133 12.8467 24.6154 11.4872 24.6154H9.84615C8.48668 24.6154 7.38462 23.5133 7.38462 22.1538V13.9487H2.46154C1.10207 13.9487 0 12.8466 0 11.4872Z" fill="white"/>
</svg>
